- 
http://www.Speed.Cd 
       
http://www.Speed.Cd      fast  and The Hottest Private Tracker on the net

(((--Submit for invite!!--)))

Please Seed back to make the speed Faster!!!

------------------nfo--------------------------
-








































          
          
              
              
                    
                    
                    
                    

Deadgirl.2008.BRRip.Xvid.AC3-SiC

Poster:
[img]http://img4.imageshack.us/img4/2258/2e23629e7f65105bdfd821a.jpg[/img]

IMDB Link:
http://www.imdb.com/title/tt0896534/

Description:
Two high school boys discover an imprisoned woman in an abandoned mental 
asylum who cannot die.

MediaInfo:
General
Complete name                    : Deadgirl.2008.BRRip.Xvid.AC3-SiC.avi
Format                           : AVI
Format/Info                      : Audio Video Interleave
File size                        : 1.30 GiB
Duration                         : 1h 41mn
Overall bit rate                 : 1 826 Kbps

Video
ID                               : 0
Format                           : MPEG-4 Visual
Format profile                   : Advanced Simple@L5
Format settings, BVOP            : Yes
Format settings, QPel            : No
Format settings, GMC             : No warppoints
Format settings, Matrix          : Default (H.263)
Muxing mode                      : Packed bitstream
Codec ID                         : XVID
Codec ID/Hint                    : XviD
Duration                         : 1h 41mn
Bit rate                         : 1 434 Kbps
Width                            : 720 pixels
Height                           : 304 pixels
Display aspect ratio             : 2.35:1
Frame rate                       : 23.976 fps
Resolution                       : 8 bits
Colorimetry                      : 4:2:0
Scan type                        : Progressive
Bits/(Pixel*Frame)               : 0.273
Stream size                      : 1.02 GiB (79%)
Writing library                  : XviD 64

Audio
ID                               : 1
Format                           : AC-3
Format/Info                      : Audio Coding 3
Format_Settings_ModeExtension    : CM (complete main)
Codec ID                         : 2000
Duration                         : 1h 41mn
Bit rate mode                    : Constant
Bit rate                         : 384 Kbps
Channel(s)                       : 6 channels
Channel positions                : Front: L C R, Side: L R, LFE
Sampling rate                    : 48.0 KHz
Stream size                      : 279 MiB (21%)
Alignment                        : Aligned on interleaves
Interleave, duration             : 64 ms (1.53 video frames)
Interleave, preload duration     : 192 ms
Title                            : 6ch English

Screenshots:
[img]http://img841.imageshack.us/img841/4049/deadgirl2008avisnapshot.png[/img]
[img]http://img200.imageshack.us/img200/4049/deadgirl2008avisnapshot.png[/img]
[img]http://img851.imageshack.us/img851/4049/deadgirl2008avisnapshot.png[/img]
[img]http://img148.imageshack.us/img148/4049/deadgirl2008avisnapshot.png[/img]
[img]http://img98.imageshack.us/img98/4049/deadgirl2008avisnapshot.png[/img]

Note :   N/A 

Source :  BluRay-untouchables Thanks!!!

Enjoy!

Respects to CaptainHomey, Cyanide, CM8, Rx, THC, ELEKTRI4KA, 
Killerhz, PA, YeFsTe, BoxSlots, MrRep and everyone in the struggle...